HIERARCHY
ROOT joint_Root
{
	OFFSET 0.0 0.0 0.0
	CHANNELS 6 Xposition Yposition Zposition Zrotation Xrotation Yrotation 
	JOINT Hips
	{
		OFFSET -17.1583 93.1646 452.98
		CHANNELS 6 Xposition Yposition Zposition Zrotation Xrotation Yrotation 
		JOINT Spine
		{
			OFFSET 15.7357 0.0 0.0
			CHANNELS 6 Xposition Yposition Zposition Zrotation Xrotation Yrotation 
			JOINT Chest
			{
				OFFSET 8.98455 -0.406207 0.0
				CHANNELS 6 Xposition Yposition Zposition Zrotation Xrotation Yrotation 
				JOINT Neck
				{
					OFFSET 16.3773 0.0 0.0
					CHANNELS 6 Xposition Yposition Zposition Zrotation Xrotation Yrotation 
					JOINT Head
					{
						OFFSET 6.45672 0.0 0.0
						CHANNELS 6 Xposition Yposition Zposition Zrotation Xrotation Yrotation 
						End Site
						{
							OFFSET 0.0 0.0 0.0
						}
					}
				}
				JOINT Shoulder_L
				{
					OFFSET 12.9942 -0.242716 4.98039
					CHANNELS 6 Xposition Yposition Zposition Zrotation Xrotation Yrotation 
					JOINT UpperArm_L
					{
						OFFSET 5.34809 0.0 0.0
						CHANNELS 6 Xposition Yposition Zposition Zrotation Xrotation Yrotation 
						JOINT LowerArm_L
						{
							OFFSET 24.3286 1.87007e-05 0.0
							CHANNELS 6 Xposition Yposition Zposition Zrotation Xrotation Yrotation 
							JOINT Hand_L
							{
								OFFSET 22.2916 0.0 0.0
								CHANNELS 6 Xposition Yposition Zposition Zrotation Xrotation Yrotation 
								End Site
								{
									OFFSET 0.0 0.0 0.0
								}
							}
						}
					}
				}
				JOINT Shoulder_R
				{
					OFFSET 12.9945 -0.242716 -4.98039
					CHANNELS 6 Xposition Yposition Zposition Zrotation Xrotation Yrotation 
					JOINT UpperArm_R
					{
						OFFSET -5.34813 0.0 0.0
						CHANNELS 6 Xposition Yposition Zposition Zrotation Xrotation Yrotation 
						JOINT LowerArm_R
						{
							OFFSET -24.3289 0.000322201 0.0
							CHANNELS 6 Xposition Yposition Zposition Zrotation Xrotation Yrotation 
							JOINT Hand_R
							{
								OFFSET -22.2915 -0.000108084 0.0
								CHANNELS 6 Xposition Yposition Zposition Zrotation Xrotation Yrotation 
								End Site
								{
									OFFSET 0.0 0.0 0.0
								}
							}
						}
					}
				}
			}
		}
		JOINT UpperLeg_L
		{
			OFFSET -2.19248 -6.46944 0.0
			CHANNELS 6 Xposition Yposition Zposition Zrotation Xrotation Yrotation 
			JOINT LowerLeg_L
			{
				OFFSET 39.0811 0.0 -1.23785e-05
				CHANNELS 6 Xposition Yposition Zposition Zrotation Xrotation Yrotation 
				JOINT Foot_L
				{
					OFFSET 40.9854 0.0 -1.26872e-05
					CHANNELS 6 Xposition Yposition Zposition Zrotation Xrotation Yrotation 
					JOINT Toes_L
					{
						OFFSET 11.7543 0.0 0.0
						CHANNELS 6 Xposition Yposition Zposition Zrotation Xrotation Yrotation 
						End Site
						{
							OFFSET 0.0 0.0 0.0
						}
					}
				}
			}
		}
		JOINT UpperLeg_R
		{
			OFFSET -2.19251 6.46944 0.0
			CHANNELS 6 Xposition Yposition Zposition Zrotation Xrotation Yrotation 
			JOINT LowerLeg_R
			{
				OFFSET -39.0811 -0.00228153 -0.0401928
				CHANNELS 6 Xposition Yposition Zposition Zrotation Xrotation Yrotation 
				JOINT Foot_R
				{
					OFFSET -40.9854 0.0 0.0
					CHANNELS 6 Xposition Yposition Zposition Zrotation Xrotation Yrotation 
					JOINT Toes_R
					{
						OFFSET -11.7543 0.0 0.0
						CHANNELS 6 Xposition Yposition Zposition Zrotation Xrotation Yrotation 
						End Site
						{
							OFFSET 0.0 0.0 0.0
						}
					}
				}
			}
		}
	}
}
MOTION
Frames:	5
Frame Time:	0.0333333
0.000000 0.000000 0.000000 0.000000 0.000000 -0.000000 -1.705930 93.376800 -4.800360 87.722300 2.060000 2.247110 15.735700 0.000005 -0.000001 84.530100 87.021300 -83.311700 8.984550 -0.406207 -0.000000 -1.827470 -0.669708 2.425770 16.377300 -0.000001 -0.000001 1.996720 2.001150 -1.427270 6.456720 -0.000001 -0.000000 1.685810 1.854920 -2.146030 12.994200 -0.242716 4.980390 -92.609000 8.171110 -72.223900 5.348090 -0.000007 -0.000001 -70.620900 21.999600 -3.870500 24.328600 0.000019 0.000005 8.751400 29.175000 -17.525500 22.291600 -0.000001 0.000005 -15.034500 5.134710 4.305890 12.994500 -0.242716 -4.980390 88.967100 3.655410 -74.209100 -5.348130 -0.000001 -0.000004 -72.153600 23.873900 -6.476770 -24.328900 0.000322 -0.000009 1.533840 7.264670 -11.964000 -22.291500 -0.000108 -0.000004 -11.799300 5.156520 3.787080 -2.192480 -6.469440 -0.000000 -172.381000 -5.026080 -3.964160 39.081100 -0.000007 -0.000012 0.001494 -0.005055 16.474700 40.985400 -0.000006 -0.000013 -2.194610 13.313700 -66.645300 11.754300 -0.000000 0.000003 -0.000454 0.174951 -9.480460 -2.192510 6.469440 -0.000001 179.184000 8.683120 178.231000 -39.081100 -0.002282 -0.040193 0.049133 -0.184305 13.955800 -40.985400 0.000008 0.000006 -3.456980 2.872080 -66.896700 -11.754300 -0.000006 -0.000006 -0.008760 0.261796 -5.939720
0.000000 0.000000 0.000000 0.000000 0.000000 -0.000000 -1.660260 93.387400 -4.518450 87.751100 2.195990 1.788840 15.735700 0.000005 -0.000001 83.113100 87.195100 -81.898000 8.984550 -0.406207 -0.000000 -2.187280 -0.778001 2.415290 16.377300 -0.000001 -0.000001 1.295850 1.954980 -1.307300 6.456720 -0.000001 -0.000000 1.130280 2.004670 -2.693020 12.994200 -0.242716 4.980390 -92.614400 8.128820 -72.103400 5.348090 -0.000007 -0.000001 -68.669600 20.054700 -5.789820 24.328600 0.000019 0.000005 8.199550 31.042200 -15.612300 22.291600 -0.000001 0.000005 -16.290700 5.159830 3.706260 12.994500 -0.242716 -4.980390 89.047900 3.293720 -73.867000 -5.348130 -0.000001 -0.000004 -70.696200 22.046000 -7.696640 -24.328900 0.000322 -0.000009 1.586630 7.901930 -11.398900 -22.291500 -0.000108 -0.000004 -12.886500 5.153090 3.869680 -2.192480 -6.469440 -0.000000 -172.465000 -4.956300 -4.152700 39.081100 -0.000007 -0.000012 0.004408 -0.015079 16.297600 40.985400 -0.000006 -0.000013 -2.161380 13.333600 -66.841300 11.754300 -0.000000 0.000003 -0.000395 0.174027 -9.518010 -2.192510 6.469440 -0.000001 179.125000 8.839410 178.095000 -39.081100 -0.002282 -0.040193 0.046233 -0.175660 13.724300 -40.985400 0.000008 0.000006 -3.726260 2.959610 -66.944000 -11.754300 -0.000006 -0.000006 -0.009107 0.264503 -5.829100
0.000000 0.000000 0.000000 0.000000 0.000000 -0.000000 -1.604640 93.393200 -4.160550 87.763200 2.267580 1.364610 15.735700 0.000005 -0.000001 81.971500 87.413400 -80.744700 8.984550 -0.406207 -0.000000 -2.633550 -0.833557 2.434620 16.377300 -0.000001 -0.000001 0.505380 1.925950 -1.204000 6.456720 -0.000001 -0.000000 0.671102 2.058730 -3.289050 12.994200 -0.242716 4.980390 -92.555200 7.909490 -72.032300 5.348090 -0.000007 -0.000001 -66.068500 17.409500 -8.303280 24.328600 0.000019 0.000005 7.308970 33.593300 -13.052100 22.291600 -0.000001 0.000005 -17.582600 5.175290 3.330740 12.994500 -0.242716 -4.980390 89.178700 2.762150 -73.433000 -5.348130 -0.000001 -0.000004 -68.363800 19.801200 -9.393780 -24.328900 0.000322 -0.000009 1.794280 9.507340 -10.745700 -22.291500 -0.000108 -0.000004 -14.364500 5.149830 3.947850 -2.192480 -6.469440 -0.000000 -172.512000 -5.181160 -4.241090 39.081100 -0.000007 -0.000012 0.004803 -0.016636 16.105100 40.985400 -0.000006 -0.000013 -2.078730 13.583600 -66.963800 11.754300 -0.000000 0.000003 -0.000316 0.172782 -9.568560 -2.192510 6.469440 -0.000001 179.075000 8.980480 178.056000 -39.081100 -0.002282 -0.040193 0.042755 -0.164856 13.448600 -40.985400 0.000008 0.000006 -3.998510 3.064740 -66.965000 -11.754300 -0.000006 -0.000006 -0.009052 0.264081 -5.846340
0.000000 0.000000 0.000000 0.000000 0.000000 -0.000000 -1.491690 93.382700 -3.687160 87.827500 2.291620 1.112370 15.735700 0.000005 -0.000001 80.864300 87.641100 -79.659600 8.984550 -0.406207 -0.000000 -3.098040 -0.862895 2.386520 16.377300 -0.000001 -0.000001 -0.330932 1.809510 -1.067800 6.456720 -0.000001 -0.000000 0.320505 2.174190 -3.805190 12.994200 -0.242716 4.980390 -92.422800 7.438520 -71.901300 5.348090 -0.000007 -0.000001 -62.784800 13.520700 -11.518700 24.328600 0.000019 0.000005 5.915660 36.987400 -9.772750 22.291600 -0.000001 0.000005 -19.527300 5.195420 2.832920 12.994500 -0.242716 -4.980390 89.414400 1.908690 -72.939500 -5.348130 -0.000001 -0.000004 -65.411200 16.729100 -11.622600 -24.328900 0.000322 -0.000009 1.892970 11.075600 -9.767510 -22.291500 -0.000108 -0.000004 -15.542600 5.140220 4.176830 -2.192480 -6.469440 -0.000000 -172.622000 -5.402990 -4.100520 39.081100 -0.000007 -0.000012 0.005023 -0.017566 15.957800 40.985400 -0.000006 -0.000013 -1.960680 13.739600 -67.115200 11.754300 -0.000000 0.000003 -0.000348 0.173297 -9.547660 -2.192510 6.469440 -0.000001 178.871000 9.340390 178.227000 -39.081100 -0.002282 -0.040193 0.039795 -0.154529 13.276500 -40.985400 0.000008 0.000006 -4.282980 3.448170 -67.052600 -11.754300 -0.000006 -0.000006 -0.008932 0.263145 -5.884590
0.000000 0.000000 0.000000 0.000000 0.000000 -0.000000 -1.375320 93.355600 -3.083670 87.891500 2.208970 0.978317 15.735700 0.000005 -0.000001 80.154800 87.887000 -79.011600 8.984550 -0.406207 -0.000000 -3.593120 -0.835452 2.260890 16.377300 -0.000001 -0.000001 -1.169340 1.679580 -0.922983 6.456720 -0.000001 -0.000000 -0.128766 2.258680 -4.135870 12.994200 -0.242716 4.980390 -92.231600 6.789800 -71.757400 5.348090 -0.000007 -0.000001 -58.527900 8.367690 -14.986900 24.328600 0.000019 0.000005 4.544800 40.008700 -7.048660 22.291600 -0.000001 0.000005 -22.193600 5.207860 2.521450 12.994500 -0.242716 -4.980390 89.745900 0.802749 -72.434000 -5.348130 -0.000001 -0.000004 -61.897200 12.532100 -14.313900 -24.328900 0.000322 -0.000009 1.847380 12.327500 -8.596010 -22.291500 -0.000108 -0.000004 -16.097400 5.126710 4.494920 -2.192480 -6.469440 -0.000000 -172.714000 -5.621460 -3.756760 39.081100 -0.000007 -0.000012 0.004353 -0.015353 15.831900 40.985400 -0.000006 -0.000013 -1.837530 13.801100 -67.248100 11.754300 -0.000000 0.000003 -0.000806 0.180244 -9.265400 -2.192510 6.469440 -0.000001 178.649000 9.662460 178.618000 -39.081100 -0.002282 -0.040193 0.037166 -0.145619 13.079800 -40.985400 0.000008 0.000006 -4.373580 3.887090 -67.183800 -11.754300 -0.000006 -0.000006 -0.009595 0.268250 -5.675920
